<?xml version="1.0" encoding="UTF-8"?>
<svg width="700pt" height="700pt" fill="#00F0C9" version="1.1" viewBox="90 25 530 515" xmlns="http://www.w3.org/2000/svg" xmlns:xlink="http://www.w3.org/1999/xlink">
  <g>
  <path d="m113.14 96.039c0.57031 5.7891 2.5273 12.883 5.8828 21.281 0.37109 0.93359 0.74219 1.8633 1.1172 2.8008l26.883-3.6406-0.55859-1.9609-0.84375-5.6016c-0.1875-4.4805 0.28516-8.3086 1.3984-11.48 2.0547-4.6641 5.7852-9.5195 11.199-14.559l13.715-12.602 3.0859-3.6406c4.4844-5.9727 7.2852-12.879 8.3984-20.719l-2.2422 2.8008c-3.3594 3.5469-8.8711 6.8125-16.516 9.8008-0.94141 0.37109-9.1562 2.5195-24.641 6.4375-5.7852 1.3086-10.359 2.8945-13.715 4.7617-5.043 2.6133-8.5977 5.8789-10.641 9.8008-2.2383 4.4805-3.082 9.9883-2.5234 16.52zm-9.5156-23.801c3.543-6.1562 9.1445-11.012 16.801-14.559 3.543-1.6797 9.2422-3.3594 17.086-5.0391 15.488-2.6133 23.602-4.0117 24.359-4.1992 7.0859-1.8633 11.945-3.7305 14.559-5.6016 3.3555-2.2383 5.4961-4.4805 6.4375-6.7188l1.3984-1.6836v-3.918l0.84375-2.5195 1.3984 1.6836h0.27344l1.9609 3.918c1.3125 3.1758 2.1562 5.7852 2.5273 7.8398l1.1172 5.8828-0.27344 7.8398c-0.57031 5.7852-2.8984 12.039-7 18.762l-7.5703 9.8008c-0.92969 1.1172-4.0156 4.293-9.2305 9.5195-3.9258 3.7344-6.3555 6.9062-7.2852 9.5195-0.92969 2.4258-0.55859 6.2539 1.1172 11.48 0.1875 0.74609 0.28516 1.3984 0.28516 1.9609 1.3008 0.1875 2.4297 0.46875 3.3594 0.83984 1.125 0.375 2.8008 1.4961 5.043 3.3594 1.6836 1.6836 2.8867 3.4531 3.6406 5.3203l0.83594 3.0742 0.27344 2.5195-0.27344 4.1992c-0.19531 1.6797-1.125 5.8789-2.8008 12.602l-1.6836 11.48c-0.74219 5.2266-2.5156 9.5195-5.3164 12.883-2.9961 3.1719-6.7266 5.5039-11.199 7l-4.7695 1.3984c0.37109 0.55859 0.57031 1.2109 0.57031 1.957 3.1719 28.559 4.3867 49.934 3.6328 64.121 3.3672-0.74609 7.1875-0.46875 11.484 0.83984 2.8008 0.93359 7.0859 2.9844 12.883 6.1602 5.2188 2.9844 9.418 4.9453 12.602 5.8789 2.0469 0.5625 4.3867 0.84375 7 0.84375l8.1172 0.55859 8.6836-0.55859c1.8594 0 4.7578-0.375 8.6719-1.1211 24.086-4.4805 51.145-16.895 81.199-37.238 8.3984-5.6016 24.172-17.082 47.328-34.438 22.398-16.801 41.156-29.961 56.273-39.48l16.801-9.5195c5.043-2.6133 11.387-5.043 19.043-7.2812 12.5-3.3594 26.688-4.3867 42.559-3.0781 15.125 1.1133 29.77 4.4727 43.953 10.074 16.984 6.9062 30.43 16.238 40.328 28 5.2266 5.7852 8.7734 12.785 10.641 21 1.1172 4.293 1.3984 8.1211 0.83203 11.48-0.37109 2.4258-1.1172 4.0117-2.2305 4.7578l-0.28516 0.55859c-3.543 6.7227-8.2148 12.691-14 17.922-3.7305 2.8008-6.8125 4.8516-9.2422 6.1602-5.2266 2.6133-10.172 3.4531-14.844 2.5195-2.9844-0.1875-5.9727-1.3086-8.957-3.3594-2.2422-1.4922-4.5703-3.4531-7-5.8789-1.8711-1.8672-6.0703-6.4375-12.602-13.723-3.7305-3.5469-5.9727-5.6016-6.7148-6.1562-0.55859-0.5625-3.0859-2.2422-7.5586-5.043-6.9141-3.1719-13.914-4.7578-21-4.7578-15.125-0.1875-31.184 7.3711-48.168 22.68-3.543 2.9844-6.6289 4.7617-9.2305 5.3203 2.9844 1.3047 7.4609 5.3164 13.43 12.039 3.3672 3.3594 6.7266 7.4648 10.086 12.316l58.242 84.844c0.55859 0.93359 5.875 8.7734 15.961 23.52 6.9023 10.453 16.613 25.574 29.117 45.359l10.367 15.398 3.9141 4.7617c3.7305 3.7305 9.4297 9.5195 17.086 17.359 7.2734 7.6523 12.688 14.371 16.23 20.156 5.4141 8.7734 7.6562 17.453 6.7266 26.043l-0.55859 3.6406c0 0.37109-0.28516 1.3984-0.84375 3.0781-1.5 4.1055-2.3398 6.1602-2.5273 6.1602l-3.0742 5.8789-3.9219 5.0469c-3.9141 4.293-7.0859 7.1875-9.5156 8.6797-4.4844 2.9844-9.3281 4.1055-14.559 3.3594-4.4844-0.375-8.6836-2.2383-12.602-5.6016-2.2422-1.6836-5.043-4.3867-8.3984-8.1211-1.125-1.1172-3.2695-3.8242-6.4414-8.1172l-38.914-51.242-9.5273-16.52c-6.5312-11.762-12.316-19.883-17.359-24.359-5.4141-5.9727-12.602-7.4688-21.559-4.4805-5.6016 1.6797-12.785 5.7852-21.559 12.316-7.2852 5.4141-13.168 10.547-17.641 15.398-5.7852 6.9062-9.2422 12.508-10.359 16.801l-0.57031 2.2383 0.003906 1.9648c-0.1875 0.93359-0.085937 2.1484 0.28516 3.6406 1.1172 2.4297 2.5156 4.1992 4.1992 5.3203 3.3594 2.0547 8.4883 4.0156 15.398 5.8789 3.543 1.1211 8.5859 2.5195 15.117 4.1992 5.6016 1.6836 10.172 3.6406 13.727 5.8828 4.1016 2.6133 7.2734 5.7852 9.5156 9.5195 2.0547 4.293 2.9844 8.1211 2.8008 11.48-0.1875 4.8516-1.957 10.453-5.3164 16.801-2.0547 3.3594-4.2969 6.625-6.7266 9.8008-2.6133 3.3594-5.2266 6.3477-7.832 8.9609l-1.3984 1.3984 7.2734-12.043c2.0547-2.9844 3.9258-6.3477 5.6016-10.078 2.6133-5.6016 3.8281-10.641 3.6406-15.121 0-2.8008-1.0273-5.6914-3.0859-8.6797-1.8594-2.6133-4.6602-4.9453-8.3984-7-2.8008-1.6797-6.9023-3.1719-12.316-4.4805-6.5312-1.3086-11.672-2.4297-15.398-3.3594-8.0273-2.0547-14-4.4805-17.914-7.2812-0.75391-0.37109-2.1562-1.6797-4.1992-3.918l-1.6914-2.5234-1.957-6.1602 1.1172-9.2383c0.74219-3.1719 2.2422-6.9062 4.4844-11.199 1.4883-2.4258 3.9141-5.6016 7.2734-9.5195 6.168-6.7227 12.414-12.508 18.77-17.359 8.957-6.9062 17.172-11.762 24.633-14.562 0.37109 0 3.0859-0.46875 8.125-1.3984 3.1719-0.37109 6.1562-0.37109 8.957 0 5.4141 1.3086 10.543 4.1992 15.398 8.6797 5.7852 5.2266 12.414 14.281 19.883 27.16l8.1172 14.281 46.199 58.52c5.4141 5.7891 9.7031 8.6836 12.883 8.6836 3.3594 0.55859 7.1875-2.1484 11.473-8.1211 4.2969-5.0391 6.7266-10.453 7.2852-16.238 0.92969-8.9609-5.5117-20.531-19.328-34.723l-22.117-22.68c-2.0547-2.6133-3.457-4.4805-4.1992-5.6016l-7-10.922c-0.92969-1.3086-10.73-16.426-29.398-45.359-6.7148-10.266-11.945-17.918-15.684-22.957l-17.359-22.961-48.438-75.324c-6.9023-11.016-9.2305-17.547-7-19.602-0.74219-0.1875-1.3984-0.5625-1.957-1.1172-2.0547-1.8672-2.2422-4.668-0.55859-8.3984 1.3008-2.6133 2.8867-4.668 4.7578-6.1602 8.5859-8.0273 18.113-14.562 28.559-19.602 10.27-4.8516 20.355-7.1875 30.242-7 9.8984 0.1875 18.941 2.6172 27.156 7.2812l5.043 3.082 5.043 4.1992c2.8008 2.6133 5.3164 5.3164 7.5586 8.1172 6.7266 8.3984 10.457 12.973 11.199 13.723 3.9258 4.1055 7 6.4375 9.2422 7 4.8555 1.3086 10.828-0.28125 17.914-4.7617 4.1133-2.6133 7.8438-5.4141 11.199-8.3984 1.5-1.1211 3.0859-2.5195 4.7695-4.1992-0.94141-0.5625-1.7812-1.5898-2.5273-3.082-1.8711-3.5469-3.457-6.4414-4.7578-8.6836-3.1719-6.1602-6.7148-11.387-10.641-15.68-8.3984-9.707-19.875-17.641-34.441-23.801-12.875-5.0352-26.129-8.1172-39.758-9.2344-13.629-1.1211-26.227-0.1875-37.801 2.8008-3.3594 0.74609-6.1562 1.5859-8.3984 2.5195-3.1719 1.3086-5.7852 2.6133-7.8438 3.9219l-15.957 8.6758c-14.742 8.9609-33.316 21.652-55.715 38.082-23.34 17.172-39.484 28.559-48.441 34.156-32.113 20.723-61.043 32.852-86.801 36.398-4.2969 0.74609-7.4688 1.1211-9.5156 1.1211l-9.5273 0.27734-8.957-1.1172c-2.9844-0.375-5.8828-0.93359-8.6836-1.6836-3.7305-1.4922-8.3984-3.918-14-7.2773-5.2305-3.3555-8.9609-5.4102-11.203-6.1562-3.1719-1.3086-6.1562-1.4922-8.957-0.5625l-4.1992 2.2422-3.0742 2.8008c-2.6133 3.1719-5.1406 7.8398-7.5703 14-2.4297 5.9727-4.7578 12.602-7 19.879l-3.9141 8.6797c1.3008-0.93359 3.3594-1.3047 6.1562-1.1172 2.8008 0.1875 5.6016 0.93359 8.3984 2.2383 14.562 6.5312 25.574 11.012 33.047 13.438 10.828 3.9219 20.441 5.9727 28.844 6.1602 8.957 0.1875 17.359-0.93359 25.199-3.3594l21.844-7.2773c11.199-4.8516 21.832-10.641 31.914-17.359 5.6016-3.7305 12.5-8.6797 20.715-14.84 9.8984-7.0938 16.711-11.762 20.441-14l3.6406-1.9609c0 0.1875-0.1875 0.5625-0.55859 1.1211 2.0469-0.74609 5.3164-0.09375 9.8008 1.957 3.3594 1.6836 7.3711 4.5742 12.043 8.6836 11.57 11.57 23.418 27.438 35.559 47.602l6.7148 11.477c2.9844 5.6016 5.043 9.8945 6.1562 12.883 1.5 3.7305 2.4297 8.4922 2.8008 14.277 0.1875 5.0391-0.64453 9.9844-2.5156 14.84-2.0547 4.8516-6.3438 11.762-12.883 20.723l-12.316 17.074c-9.7109 14.188-15.957 24.73-18.758 31.641-4.6719 10.453-5.7852 19.602-3.3594 27.441 1.3047 5.7891 5.875 12.227 13.719 19.32 7.6562 5.7891 19.043 12.227 34.156 19.32 21.844 9.5195 33.785 14.934 35.844 16.238 3.7266 1.8672 5.6875 3.0781 5.8828 3.6406l-6.4414-1.3984c-18.297-5.2266-30.984-9.0547-38.086-11.48-15.871-5.6016-28.469-11.852-37.801-18.762-3.9141-2.9844-7.3711-6.1602-10.359-9.5195l-4.7539-6.4414c-2.2422-4.8516-3.3594-7.4688-3.3594-7.8398-3.5547-10.27-2.5273-22.121 3.0742-35.562 2.4297-6.5312 8.7734-18.012 19.043-34.438l12.316-17.922c5.4141-7.2773 9.0547-13.156 10.926-17.641 1.1172-4.1055 1.5859-7.0938 1.3984-8.9609-0.37109-3.7305-1.125-7-2.2422-9.8008-1.6836-3.918-3.457-7.3711-5.3164-10.359l-6.7266-11.477c-11.57-19.039-22.672-33.785-33.316-44.238l-8.957-9.2383c-2.9961-3.5469-4.3984-6.4375-4.1992-8.6836-2.8008 3.7344-8.3984 9.5195-16.801 17.359-8.0273 7.4688-14.57 13.254-19.602 17.359-10.082 8.0273-21.094 14.844-33.039 20.441l-10.641 5.0391-12.316 3.9219c-9.8984 3.5469-19.699 5.0391-29.398 4.4805-9.8984-0.1875-21-2.2383-33.328-6.1562-8.0273-2.8008-19.414-7.4688-34.156-14-8.5898-4.4844-12.043-8.6836-10.359-12.602 0.37109-0.74609 0.84375-1.3086 1.3984-1.6836l1.957-9.8008c3.1719-13.625 4.8555-20.625 5.043-21 2.4297-7.4648 5.043-12.973 7.8438-16.52 1.6719-1.8672 3.2578-3.4531 4.7578-4.7617-3.7422-11.57-7.3711-33.41-10.926-65.516-3.7305 0.5625-7 0.28125-9.8008-0.83984-2.9844-1.3086-5.6016-3.4531-7.832-6.4375l-1.125-1.6836-4.7578-10.078c-0.74219-2.0547-1.6836-5.4141-2.8008-10.078-2.0586-7.8438-3.3594-14.938-3.918-21.285v-3.6406l0.55859 0.84375c-0.37109-0.74609-0.55859-1.4922-0.55859-2.2383-0.19531-1.4922 0.1875-2.8008 1.1172-3.9219-0.37109-0.75-0.74219-1.4961-1.1172-2.2422-3.7422-9.707-5.9844-18.293-6.7266-25.762-0.92969-9.5156 0.74609-17.918 5.043-25.199zm14.844 62.723c-2.6133 0.5625-5.2266 0.5625-7.8438 0-1.5-0.375-2.6133-0.93359-3.3594-1.6797l0.27344 0.55859c1.125 1.8672 3.9258 8.3984 8.3984 19.602l7 13.441 3.3672 4.4805c1.3086 1.3047 2.3359 2.0508 3.0781 2.2383 0.92969 0.1875 2.5273 0 4.7578-0.5625l11.77-3.918c0.55859 0 1.8594-0.46875 3.9141-1.3984 2.0547-0.5625 3.9141-1.7734 5.6016-3.6406 0.92969-1.6836 1.5859-3.9219 1.957-6.7227 0.37109-4.8516 0.84375-8.7734 1.3984-11.762l2.2422-11.762v-2.5195l-0.28125 0.003906v-0.28125l-0.83203-0.27734c-1.3125-0.74609-4.7695-0.65234-10.367 0.27734-18.289 2.6133-28.648 3.9219-31.074 3.9219zm45.641-73.922c1.3008 0 2.418 0.46875 3.3594 1.3984 0.92969 0.93359 1.3984 1.9609 1.3984 3.082 0 1.3086-0.46875 2.4258-1.3984 3.3594-0.94141 0.93359-2.0547 1.3984-3.3594 1.3984-1.5 0-2.7109-0.46875-3.6406-1.3984-0.94141-0.93359-1.3984-2.0547-1.3984-3.3594 0-1.1211 0.46094-2.1484 1.3984-3.082 0.92969-0.92969 2.1445-1.3984 3.6406-1.3984zm-27.441 15.684c0-1.4922 0.46094-2.707 1.3984-3.6406 0.92969-0.93359 1.957-1.3984 3.0742-1.3984 1.125 0 2.3398 0.46484 3.6406 1.3984 0.92969 1.3047 1.3984 2.5195 1.3984 3.6406 0 0.93359-0.46875 2.0547-1.3984 3.3594-1.3008 0.93359-2.5156 1.3984-3.6406 1.3984-1.1172 0-2.1445-0.46875-3.0742-1.3984-0.9375-0.93359-1.3984-2.0547-1.3984-3.3594zm-4.1992 23.797c0 1.3086-0.46875 2.4258-1.3984 3.3594-0.94141 0.93359-1.957 1.3984-3.0859 1.3984-1.1172 0-2.3281-0.46875-3.6406-1.3984-0.92969-1.3086-1.3984-2.4297-1.3984-3.3594 0-1.1211 0.46875-2.3359 1.3984-3.6406 1.3125-0.93359 2.5273-1.3984 3.6406-1.3984 1.125 0 2.1445 0.46484 3.0859 1.3984 0.92578 0.93359 1.3984 2.1484 1.3984 3.6406zm129.64-9.2383 2.8008-2.8008c7.2734-7.8438 16.516-12.789 27.715-14.844l6.4414-0.55859c2.8008 0 5.6016 0.27734 8.3984 0.83984 5.7852 1.8633 8.6719 4.1055 8.6719 6.7188h0.84375l12.883 1.6836c8.7773 0.93359 16.336 4.7617 22.68 11.48 9.1562 9.3359 13.812 21.84 14 37.52 0.37109 9.1484-1.4883 18.105-5.6016 26.879-2.2305 4.8516-5.3164 9.2383-9.2305 13.16-3.9258 4.293-8.7852 7.8398-14.57 10.641-0.92969 0.5625-3.8281 1.6836-8.6719 3.3594l-8.957 1.9609c-7.6562 1.4922-14.383 1.8633-20.168 1.1172l-5.3164-0.83594-8.1172-2.2383-8.125-3.6406-7.2734-5.3242-6.4414-6.7188-3.3594-5.043c-2.6133-4.6641-4.6719-8.207-6.168-10.637l-3.0742-9.2383-0.55859-3.3633c-2.2422-8.2148-2.1562-17.266 0.27344-27.16 0.74219-3.1719 1.5-5.5039 2.2422-7l2.5156-6.4375c0.37109-0.74609 1.6836-2.8945 3.9258-6.4375zm13.434 7.5586-1.957 1.6836-1.3984 2.2383c-0.55859 1.1211-1.4883 2.707-2.8008 4.7617l-2.2422 5.3164c-0.1875 0.5625-0.74219 2.3359-1.6719 5.3203-1.875 7.8398-2.0625 14.652-0.5625 20.441l0.55859 2.5195 2.5156 7c2.9844 5.4141 4.6719 8.3984 5.043 8.9609l2.8008 4.1992 4.4844 4.7578 5.0312 3.9219c1.8711 0.5625 4.3867 1.5859 7.5703 3.0781l3.9141 1.1211 4.1992 0.5625c0.92969 0.1875 3.7305 0.27734 8.3984 0.27734l8.1172-0.5625c8.2148-2.0547 13.07-3.3594 14.57-3.918 4.4727-2.0547 8.2031-4.5742 11.199-7.5625 2.8008-2.8008 5.3164-6.2539 7.5586-10.359 3.7305-7.4648 5.6016-14.652 5.6016-21.562 0.55859-13.066-2.7109-23.895-9.8008-32.48-5.043-6.1602-11.113-9.9844-18.199-11.48l-12.891-4.4727c-1.3008 1.6836-4.2891 2.9844-8.957 3.9219l-11.199 1.9609c-7.8438 1.4883-14.469 4.9453-19.883 10.355zm-74.758-25.199c0.92969 0.93359 1.5 2.4297 1.6836 4.4805 0.1875 1.1172 0.1875 2.6133 0 4.4805-0.37109 2.8008-0.94141 4.8516-1.6836 6.1602-3.1719 6.7227-8.0273 11.852-14.559 15.398-1.6836 0.74609-3.3594-1.1211-5.043-5.6016-2.0547-5.0391-2.5156-7.5625-1.3984-7.5625 2.4297-1.4922 5.7852-4.3867 10.086-8.6797l8.3984-8.9609 1.3984-0.55469zm117.6 27.441h-1.6719c-1.3125 0-2.4297-0.46875-3.3672-1.3984-0.92969-0.93359-1.3984-2.0547-1.3984-3.3594 0-3.3594 1.5859-5.0391 4.7695-5.0391l3.0742 0.55859c1.3125 0.375 2.2422 1.2148 2.8008 2.5195 0.55078 1.1172 0.64844 2.3281 0.27734 3.6367-0.94141 2.0547-2.4258 3.082-4.4844 3.082zm17.926-0.5625c2.9844 3.3594 5.2188 6.5312 6.7148 9.5195 0.55859 1.1211 0.65625 2.3359 0.28516 3.6406-0.57031 1.3047-1.3984 2.2383-2.5273 2.8008l-1.957 0.55859c-2.0547 0-3.543-0.93359-4.4844-2.8008-1.1172-2.4258-2.8008-4.6641-5.0312-6.7188-0.57031-0.74609-1.3984-1.4922-2.5273-2.2383-2.6133-1.8672-3.0742-4.1055-1.3984-6.7227 1.8711-2.6133 4.1133-3.0781 6.7266-1.3984zm76.16 154c1.1172-0.74609 2.3281-1.0273 3.6406-0.83984 1.3008 0.1875 2.3281 0.74609 3.0742 1.6797l24.641 33.602c0.74609 1.1211 1.0312 2.332 0.84375 3.6406-0.1875 1.3086-0.75391 2.3359-1.6836 3.082-1.1172 0.74609-2.0586 1.1172-2.8008 1.1172-1.6719 0-2.9844-0.65234-3.9141-1.9609l-24.641-33.602c-0.74609-1.1172-1.0312-2.332-0.84375-3.6367 0.18359-1.3086 0.74219-2.332 1.6836-3.082zm-129.36 16.52c1.3008 0 2.418 0.46875 3.3594 1.3984 0.92969 0.93359 1.3984 1.9609 1.3984 3.082 0 1.3086-0.46875 2.4258-1.3984 3.3594-0.94141 0.93359-2.0547 1.3984-3.3594 1.3984-1.5 0-2.7109-0.46875-3.6406-1.3984-0.94141-0.93359-1.3984-2.0547-1.3984-3.3594 0-1.1211 0.46094-2.1484 1.3984-3.082 0.92969-0.92969 2.1445-1.3984 3.6406-1.3984zm-17.641 17.645c0 1.1172-0.46875 2.332-1.3984 3.6406-1.3125 0.93359-2.4297 1.3984-3.3594 1.3984-1.125 0-2.3398-0.46875-3.6406-1.3984-0.94141-1.3086-1.3984-2.5195-1.3984-3.6406 0-0.93359 0.46094-2.0547 1.3984-3.3594 1.3008-0.93359 2.5156-1.3984 3.6406-1.3984 0.92969 0 2.0469 0.46484 3.3594 1.3984 0.92578 1.3047 1.3984 2.4219 1.3984 3.3594zm-25.484 6.1562c0.92969 0.93359 1.3984 1.9609 1.3984 3.082 0 1.3086-0.46875 2.4258-1.3984 3.3594-0.92969 0.93359-2.1445 1.3984-3.6406 1.3984-1.3008 0-2.3281-0.46875-3.0742-1.3984-0.94141-0.74609-1.3984-1.8672-1.3984-3.3594 0-1.3086 0.46094-2.3359 1.3984-3.082 0.74219-0.93359 1.7734-1.3984 3.0742-1.3984 1.4961-0.003906 2.7109 0.46484 3.6406 1.3984zm204.68 11.762c-1.6836-2.6133-1.2148-4.8516 1.3984-6.7188 2.6133-1.6836 4.8438-1.2148 6.7148 1.3984l1.125 1.6797c1.6719 2.6133 1.2031 4.8516-1.3984 6.7227-0.75391 0.55859-1.5977 0.83984-2.5273 0.83984-1.6719 0-3.0742-0.74609-4.1992-2.2383zm-230.73-0.5625c-0.92969 0.93359-1.957 1.3984-3.0742 1.3984-1.3125 0-2.4297-0.46484-3.3594-1.3984-0.94141-0.93359-1.3984-2.0547-1.3984-3.3594 0-1.4961 0.46094-2.6133 1.3984-3.3594 0.74219-0.93359 1.8594-1.3984 3.3594-1.3984 1.3008 0 2.3281 0.46484 3.0742 1.3984 0.94141 0.74609 1.3984 1.8633 1.3984 3.3594 0 1.3047-0.45703 2.4258-1.3984 3.3594zm-26.031-1.1172c-1.3125 0.93359-2.5273 1.3984-3.6406 1.3984-1.125 0-2.1562-0.46875-3.0859-1.3984-0.92969-0.93359-1.3984-2.1484-1.3984-3.6406 0-1.3086 0.46875-2.4297 1.3984-3.3594 0.92969-0.93359 1.957-1.3984 3.0859-1.3984 1.1172 0 2.3281 0.46484 3.6406 1.3984 0.92969 1.3086 1.3984 2.4258 1.3984 3.3594 0 1.1172-0.46875 2.332-1.3984 3.6406zm-26.043-13.441c0.92969 0.74609 1.3984 1.8633 1.3984 3.3594 0 1.3086-0.46875 2.3359-1.3984 3.082-0.75391 0.93359-1.7734 1.3984-3.0859 1.3984-1.4883 0-2.7031-0.46875-3.6406-1.3984-0.92969-0.93359-1.3984-1.9609-1.3984-3.082 0-1.3047 0.46875-2.4258 1.3984-3.3594 0.94141-0.93359 2.1562-1.3984 3.6406-1.3984 1.3164 0 2.332 0.46484 3.0859 1.3984zm362.6 144.2c0-0.93359 0.46094-2.0547 1.3984-3.3594 1.3008-0.93359 2.5156-1.3984 3.6406-1.3984 0.92969 0 2.0469 0.46875 3.3594 1.3984 0.92969 1.3086 1.3984 2.4258 1.3984 3.3594 0 1.1172-0.46875 2.332-1.3984 3.6406-1.3125 0.93359-2.4297 1.3984-3.3594 1.3984-1.125 0-2.3398-0.46875-3.6406-1.3984-0.94141-1.3086-1.3984-2.5234-1.3984-3.6406zm18.199 16.797c1.3008-0.93359 2.5156-1.3984 3.6406-1.3984 0.92969 0 2.0469 0.46484 3.3594 1.3984 0.92969 1.3086 1.3984 2.5195 1.3984 3.6406 0 0.93359-0.46875 2.0547-1.3984 3.3594-1.3125 0.93359-2.4297 1.3984-3.3594 1.3984-1.125 0-2.3398-0.46875-3.6406-1.3984-0.94141-1.3086-1.3984-2.4297-1.3984-3.3594 0-1.1211 0.45703-2.332 1.3984-3.6406zm23.801 27.16c-1.3125 0.93359-2.4297 1.3984-3.3594 1.3984-1.125 0-2.3398-0.46484-3.6406-1.3984-0.94141-1.3086-1.3984-2.4258-1.3984-3.3594 0-1.3086 0.46094-2.4297 1.3984-3.3594 0.92969-0.93359 2.1445-1.3984 3.6406-1.3984 1.3008 0 2.418 0.46875 3.3594 1.3984 0.92969 0.93359 1.3984 2.0547 1.3984 3.3594 0 0.93359-0.46875 2.0508-1.3984 3.3594z" fill-rule="evenodd"/>
 </g>
</svg>
